<svg xmlns="http://www.w3.org/2000/svg" viewBox="0 0 512 512" role="img" aria-label="JOOVIS Terms Cockpit icon">
  <rect width="512" height="512" rx="112" fill="#101820" />
  <circle cx="256" cy="266" r="174" fill="#0a3a42" />
  <path d="M118 172c0-48 39-86 86-86h104c48 0 86 38 86 86v88c0 82-66 148-148 148h-20c-82 0-148-66-148-148v-88Z" fill="#087f8c" />
  <path d="M318 82h72v152l-36-28-36 28V82Z" fill="#ffc36a" />
  <rect x="144" y="160" width="224" height="166" rx="76" fill="#101820" />
  <circle cx="206" cy="236" r="31" fill="#edf2f4" />
  <circle cx="306" cy="236" r="31" fill="#edf2f4" />
  <path d="M154 302c70 18 133 58 102 112-29-54 32-94 102-112-20 70-62 110-102 112-40-2-82-42-102-112Z" fill="#1bc7bd" />
  <path d="M205 326c33 18 70 18 102 0" fill="none" stroke="#edf2f4" stroke-width="16" stroke-linecap="round" opacity="0.76" />
</svg>
